<svg aria-labelledby="chart-title-mermaid-0 chart-desc-mermaid-0" viewBox="0 0 628.995 876" style="max-width:628.995px;background-color:#fff;font-family:&quot;trebuchet ms&quot;,verdana,arial,sans-serif;font-size:16px;fill:#000" height="876" xmlns="http://www.w3.org/2000/svg"><defs><marker orient="auto" markerHeight="18" markerWidth="18" refY="9" refX="18" id="b"><path d="M3 0v18M9 0v18" fill="none" stroke="gray"/></marker></defs><defs><marker orient="auto" markerHeight="18" markerWidth="30" refY="9" refX="0" id="a"><circle r="6" cy="9" cx="21" fill="#fff" stroke="gray"/><path d="M9 0v18" fill="none" stroke="gray"/></marker></defs><defs><marker orient="auto" markerHeight="36" markerWidth="57" refY="18" refX="18" id="c"><circle r="6" cy="18" cx="48" fill="#fff" stroke="gray"/><path d="M0 18q18-18 36 0-18 18-36 0" fill="none" stroke="gray"/></marker></defs><defs><marker orient="auto" markerHeight="36" markerWidth="57" refY="18" refX="39" id="d"><circle r="6" cy="18" cx="9" fill="#fff" stroke="gray"/><path d="M21 18q18-18 36 0-18 18-36 0" fill="none" stroke="gray"/></marker></defs><path marker-start="url(#a)" marker-end="url(#b)" fill="none" stroke="gray" d="M70 611v13.833c0 13.834 0 41.5 13.927 65.175 13.927 23.676 41.781 43.36 55.708 53.201l13.928 9.842" class="er relationshipLine"/><path marker-start="url(#c)" marker-end="url(#b)" fill="none" stroke="gray" d="m278.594 176-9.766 8.333c-9.765 8.334-29.297 25-39.062 54.667C220 268.667 220 311.333 220 354v390" class="er relationshipLine"/><path marker-start="url(#c)" marker-end="url(#d)" fill="none" stroke="gray" d="m366.9 176-.33 8.333c-.331 8.334-.994 25 2.262 41.667 3.255 16.667 10.427 33.333 14.014 41.667l3.586 8.333" class="er relationshipLine"/><path marker-start="url(#c)" marker-end="url(#d)" fill="none" stroke="gray" d="m447.37 276 2.924-8.333c2.924-8.334 8.772-25 5.517-41.667-3.256-16.667-15.614-33.333-21.793-41.667l-6.18-8.333" class="er relationshipLine"/><path marker-start="url(#c)" marker-end="url(#b)" fill="none" stroke="gray" d="m359.063 432-6.51 8.333c-6.511 8.334-19.532 25-26.043 51-6.51 26-6.51 61.334-6.51 96.667s0 70.667-7.862 96.667c-7.861 26-23.585 42.666-31.446 51L272.83 744" class="er relationshipLine"/><path marker-start="url(#c)" marker-end="url(#d)" fill="none" stroke="gray" d="m440.243 432 2.162 8.333c2.163 8.334 6.488 25 12.582 41.667 6.093 16.667 13.955 33.333 17.886 41.667l3.93 8.333" class="er relationshipLine"/><path marker-start="url(#c)" marker-end="url(#d)" fill="none" stroke="gray" d="m509.828 310.162 11.667-5.694c11.666-5.694 35-17.08 49.583-22.774C585.661 276 591.495 276 597.328 289c5.833 13 11.667 39 11.667 65s-5.834 52-11.667 65-11.667 13-26.25 7.306c-14.583-5.693-37.917-17.08-49.583-22.774l-11.667-5.694" class="er relationshipLine"/><path marker-start="url(#c)" marker-end="url(#d)" fill="none" stroke="gray" d="m509.828 310.162 11.667-5.694c11.666-5.694 35-17.08 49.583-22.774C585.661 276 591.495 276 597.328 289c5.833 13 11.667 39 11.667 65s-5.834 52-11.667 65-11.667 13-26.25 7.306c-14.583-5.693-37.917-17.08-49.583-22.774l-11.667-5.694" class="er relationshipLine"/><path marker-start="url(#c)" marker-end="url(#b)" fill="none" stroke="gray" d="M503.219 644v8.333c0 8.334 0 25-36.13 46.856s-108.391 48.9-144.521 62.423l-36.13 13.523" class="er relationshipLine"/><path marker-start="url(#c)" marker-end="url(#d)" fill="none" stroke="gray" d="m529.634 532 3.93-8.333c3.931-8.334 11.793-25 7.05-41.667-4.741-16.667-22.088-33.333-30.76-41.667L501.18 432" class="er relationshipLine"/><path stroke="gray" fill-opacity="100%" fill="#f0fff0" class="er entityBox" d="M153.563 744h132.875v112H153.563z"/><text transform="translate(220.001 756)" style="font-family:&quot;trebuchet ms&quot;,verdana,arial,sans-serif;font-size:12px" text-anchor="middle" dominant-baseline="middle" class="er entityLabel">User</text><path stroke="gray" fill-opacity="100%" fill="#f0fff0" class="er attributeBoxOdd" d="M153.563 768h53.664v22h-53.664z"/><text transform="translate(158.563 779)" style="font-family:&quot;trebuchet ms&quot;,verdana,arial,sans-serif;font-size:10.2px" text-anchor="left" dominant-baseline="middle" class="er entityLabel">String</text><path stroke="gray" fill-opacity="100%" fill="#f0fff0" class="er attributeBoxOdd" d="M207.227 768h57.648v22h-57.648z"/><text transform="translate(212.227 779)" style="font-family:&quot;trebuchet ms&quot;,verdana,arial,sans-serif;font-size:10.2px" text-anchor="left" dominant-baseline="middle" class="er entityLabel">id</text><path stroke="gray" fill-opacity="100%" fill="#f0fff0" class="er attributeBoxOdd" d="M264.876 768h21.563v22h-21.563z"/><text transform="translate(269.876 779)" style="font-family:&quot;trebuchet ms&quot;,verdana,arial,sans-serif;font-size:10.2px" text-anchor="left" dominant-baseline="middle" class="er entityLabel">PK</text><path stroke="gray" fill-opacity="100%" fill="#f0fff0" class="er attributeBoxEven" d="M153.563 790h53.664v22h-53.664z"/><text transform="translate(158.563 801)" style="font-family:&quot;trebuchet ms&quot;,verdana,arial,sans-serif;font-size:10.2px" text-anchor="left" dominant-baseline="middle" class="er entityLabel">String</text><path stroke="gray" fill-opacity="100%" fill="#f0fff0" class="er attributeBoxEven" d="M207.227 790h57.648v22h-57.648z"/><text transform="translate(212.227 801)" style="font-family:&quot;trebuchet ms&quot;,verdana,arial,sans-serif;font-size:10.2px" text-anchor="left" dominant-baseline="middle" class="er entityLabel">email</text><path stroke="gray" fill-opacity="100%" fill="#f0fff0" class="er attributeBoxEven" d="M264.876 790h21.563v22h-21.563z"/><path stroke="gray" fill-opacity="100%" fill="#f0fff0" class="er attributeBoxOdd" d="M153.563 812h53.664v22h-53.664z"/><text transform="translate(158.563 823)" style="font-family:&quot;trebuchet ms&quot;,verdana,arial,sans-serif;font-size:10.2px" text-anchor="left" dominant-baseline="middle" class="er entityLabel">DateTime</text><path stroke="gray" fill-opacity="100%" fill="#f0fff0" class="er attributeBoxOdd" d="M207.227 812h57.648v22h-57.648z"/><text transform="translate(212.227 823)" style="font-family:&quot;trebuchet ms&quot;,verdana,arial,sans-serif;font-size:10.2px" text-anchor="left" dominant-baseline="middle" class="er entityLabel">createdAt</text><path stroke="gray" fill-opacity="100%" fill="#f0fff0" class="er attributeBoxOdd" d="M264.876 812h21.563v22h-21.563z"/><path stroke="gray" fill-opacity="100%" fill="#f0fff0" class="er attributeBoxEven" d="M153.563 834h53.664v22h-53.664z"/><text transform="translate(158.563 845)" style="font-family:&quot;trebuchet ms&quot;,verdana,arial,sans-serif;font-size:10.2px" text-anchor="left" dominant-baseline="middle" class="er entityLabel">DateTime</text><path stroke="gray" fill-opacity="100%" fill="#f0fff0" class="er attributeBoxEven" d="M207.227 834h57.648v22h-57.648z"/><text transform="translate(212.227 845)" style="font-family:&quot;trebuchet ms&quot;,verdana,arial,sans-serif;font-size:10.2px" text-anchor="left" dominant-baseline="middle" class="er entityLabel">updatedAt</text><path stroke="gray" fill-opacity="100%" fill="#f0fff0" class="er attributeBoxEven" d="M264.876 834h21.563v22h-21.563z"/><path stroke="gray" fill-opacity="100%" fill="#f0fff0" class="er entityBox" d="M20 565h100v46H20z"/><text transform="translate(70 577)" style="font-family:&quot;trebuchet ms&quot;,verdana,arial,sans-serif;font-size:12px" text-anchor="middle" dominant-baseline="middle" class="er entityLabel">Password</text><path stroke="gray" fill-opacity="100%" fill="#f0fff0" class="er attributeBoxOdd" d="M20 589h52.941v22H20z"/><text transform="translate(25 600)" style="font-family:&quot;trebuchet ms&quot;,verdana,arial,sans-serif;font-size:10.2px" text-anchor="left" dominant-baseline="middle" class="er entityLabel">String</text><path stroke="gray" fill-opacity="100%" fill="#f0fff0" class="er attributeBoxOdd" d="M72.941 589H120v22H72.941z"/><text transform="translate(77.941 600)" style="font-family:&quot;trebuchet ms&quot;,verdana,arial,sans-serif;font-size:10.2px" text-anchor="left" dominant-baseline="middle" class="er entityLabel">hash</text><path stroke="gray" fill-opacity="100%" fill="#f0fff0" class="er entityBox" d="M278.504 20h182.992v156H278.504z"/><text transform="translate(370 32)" style="font-family:&quot;trebuchet ms&quot;,verdana,arial,sans-serif;font-size:12px" text-anchor="middle" dominant-baseline="middle" class="er entityLabel">Timeline</text><path stroke="gray" fill-opacity="100%" fill="#f0fff0" class="er attributeBoxOdd" d="M278.504 44h53.664v22h-53.664z"/><text transform="translate(283.504 55)" style="font-family:&quot;trebuchet ms&quot;,verdana,arial,sans-serif;font-size:10.2px" text-anchor="left" dominant-baseline="middle" class="er entityLabel">String</text><path stroke="gray" fill-opacity="100%" fill="#f0fff0" class="er attributeBoxOdd" d="M332.168 44h60.984v22h-60.984z"/><text transform="translate(337.168 55)" style="font-family:&quot;trebuchet ms&quot;,verdana,arial,sans-serif;font-size:10.2px" text-anchor="left" dominant-baseline="middle" class="er entityLabel">id</text><path stroke="gray" fill-opacity="100%" fill="#f0fff0" class="er attributeBoxOdd" d="M393.152 44h21.563v22h-21.563z"/><text transform="translate(398.152 55)" style="font-family:&quot;trebuchet ms&quot;,verdana,arial,sans-serif;font-size:10.2px" text-anchor="left" dominant-baseline="middle" class="er entityLabel">PK</text><path stroke="gray" fill-opacity="100%" fill="#f0fff0" class="er attributeBoxOdd" d="M414.715 44h46.781v22h-46.781z"/><path stroke="gray" fill-opacity="100%" fill="#f0fff0" class="er attributeBoxEven" d="M278.504 66h53.664v22h-53.664z"/><text transform="translate(283.504 77)" style="font-family:&quot;trebuchet ms&quot;,verdana,arial,sans-serif;font-size:10.2px" text-anchor="left" dominant-baseline="middle" class="er entityLabel">String</text><path stroke="gray" fill-opacity="100%" fill="#f0fff0" class="er attributeBoxEven" d="M332.168 66h60.984v22h-60.984z"/><text transform="translate(337.168 77)" style="font-family:&quot;trebuchet ms&quot;,verdana,arial,sans-serif;font-size:10.2px" text-anchor="left" dominant-baseline="middle" class="er entityLabel">title</text><path stroke="gray" fill-opacity="100%" fill="#f0fff0" class="er attributeBoxEven" d="M393.152 66h21.563v22h-21.563zm21.563 0h46.781v22h-46.781z"/><path stroke="gray" fill-opacity="100%" fill="#f0fff0" class="er attributeBoxOdd" d="M278.504 88h53.664v22h-53.664z"/><text transform="translate(283.504 99)" style="font-family:&quot;trebuchet ms&quot;,verdana,arial,sans-serif;font-size:10.2px" text-anchor="left" dominant-baseline="middle" class="er entityLabel">String</text><path stroke="gray" fill-opacity="100%" fill="#f0fff0" class="er attributeBoxOdd" d="M332.168 88h60.984v22h-60.984z"/><text transform="translate(337.168 99)" style="font-family:&quot;trebuchet ms&quot;,verdana,arial,sans-serif;font-size:10.2px" text-anchor="left" dominant-baseline="middle" class="er entityLabel">description</text><path stroke="gray" fill-opacity="100%" fill="#f0fff0" class="er attributeBoxOdd" d="M393.152 88h21.563v22h-21.563zm21.563 0h46.781v22h-46.781z"/><path stroke="gray" fill-opacity="100%" fill="#f0fff0" class="er attributeBoxEven" d="M278.504 110h53.664v22h-53.664z"/><text transform="translate(283.504 121)" style="font-family:&quot;trebuchet ms&quot;,verdana,arial,sans-serif;font-size:10.2px" text-anchor="left" dominant-baseline="middle" class="er entityLabel">String</text><path stroke="gray" fill-opacity="100%" fill="#f0fff0" class="er attributeBoxEven" d="M332.168 110h60.984v22h-60.984z"/><text transform="translate(337.168 121)" style="font-family:&quot;trebuchet ms&quot;,verdana,arial,sans-serif;font-size:10.2px" text-anchor="left" dominant-baseline="middle" class="er entityLabel">imageUrl</text><path stroke="gray" fill-opacity="100%" fill="#f0fff0" class="er attributeBoxEven" d="M393.152 110h21.563v22h-21.563zm21.563 0h46.781v22h-46.781z"/><text transform="translate(419.714 121)" style="font-family:&quot;trebuchet ms&quot;,verdana,arial,sans-serif;font-size:10.2px" text-anchor="left" dominant-baseline="middle" class="er entityLabel">nullable</text><path stroke="gray" fill-opacity="100%" fill="#f0fff0" class="er attributeBoxOdd" d="M278.504 132h53.664v22h-53.664z"/><text transform="translate(283.504 143)" style="font-family:&quot;trebuchet ms&quot;,verdana,arial,sans-serif;font-size:10.2px" text-anchor="left" dominant-baseline="middle" class="er entityLabel">DateTime</text><path stroke="gray" fill-opacity="100%" fill="#f0fff0" class="er attributeBoxOdd" d="M332.168 132h60.984v22h-60.984z"/><text transform="translate(337.168 143)" style="font-family:&quot;trebuchet ms&quot;,verdana,arial,sans-serif;font-size:10.2px" text-anchor="left" dominant-baseline="middle" class="er entityLabel">createdAt</text><path stroke="gray" fill-opacity="100%" fill="#f0fff0" class="er attributeBoxOdd" d="M393.152 132h21.563v22h-21.563zm21.563 0h46.781v22h-46.781z"/><path stroke="gray" fill-opacity="100%" fill="#f0fff0" class="er attributeBoxEven" d="M278.504 154h53.664v22h-53.664z"/><text transform="translate(283.504 165)" style="font-family:&quot;trebuchet ms&quot;,verdana,arial,sans-serif;font-size:10.2px" text-anchor="left" dominant-baseline="middle" class="er entityLabel">DateTime</text><path stroke="gray" fill-opacity="100%" fill="#f0fff0" class="er attributeBoxEven" d="M332.168 154h60.984v22h-60.984z"/><text transform="translate(337.168 165)" style="font-family:&quot;trebuchet ms&quot;,verdana,arial,sans-serif;font-size:10.2px" text-anchor="left" dominant-baseline="middle" class="er entityLabel">updatedAt</text><path stroke="gray" fill-opacity="100%" fill="#f0fff0" class="er attributeBoxEven" d="M393.152 154h21.563v22h-21.563zm21.563 0h46.781v22h-46.781z"/><path stroke="gray" fill-opacity="100%" fill="#f0fff0" class="er entityBox" d="M330.172 276h179.656v156H330.172z"/><text transform="translate(420 288)" style="font-family:&quot;trebuchet ms&quot;,verdana,arial,sans-serif;font-size:12px" text-anchor="middle" dominant-baseline="middle" class="er entityLabel">Event</text><path stroke="gray" fill-opacity="100%" fill="#f0fff0" class="er attributeBoxOdd" d="M330.172 300h53.664v22h-53.664z"/><text transform="translate(335.172 311)" style="font-family:&quot;trebuchet ms&quot;,verdana,arial,sans-serif;font-size:10.2px" text-anchor="left" dominant-baseline="middle" class="er entityLabel">String</text><path stroke="gray" fill-opacity="100%" fill="#f0fff0" class="er attributeBoxOdd" d="M383.836 300h57.648v22h-57.648z"/><text transform="translate(388.836 311)" style="font-family:&quot;trebuchet ms&quot;,verdana,arial,sans-serif;font-size:10.2px" text-anchor="left" dominant-baseline="middle" class="er entityLabel">id</text><path stroke="gray" fill-opacity="100%" fill="#f0fff0" class="er attributeBoxOdd" d="M441.485 300h21.563v22h-21.563z"/><text transform="translate(446.485 311)" style="font-family:&quot;trebuchet ms&quot;,verdana,arial,sans-serif;font-size:10.2px" text-anchor="left" dominant-baseline="middle" class="er entityLabel">PK</text><path stroke="gray" fill-opacity="100%" fill="#f0fff0" class="er attributeBoxOdd" d="M463.047 300h46.781v22h-46.781z"/><path stroke="gray" fill-opacity="100%" fill="#f0fff0" class="er attributeBoxEven" d="M330.172 322h53.664v22h-53.664z"/><text transform="translate(335.172 333)" style="font-family:&quot;trebuchet ms&quot;,verdana,arial,sans-serif;font-size:10.2px" text-anchor="left" dominant-baseline="middle" class="er entityLabel">String</text><path stroke="gray" fill-opacity="100%" fill="#f0fff0" class="er attributeBoxEven" d="M383.836 322h57.648v22h-57.648z"/><text transform="translate(388.836 333)" style="font-family:&quot;trebuchet ms&quot;,verdana,arial,sans-serif;font-size:10.2px" text-anchor="left" dominant-baseline="middle" class="er entityLabel">title</text><path stroke="gray" fill-opacity="100%" fill="#f0fff0" class="er attributeBoxEven" d="M441.485 322h21.563v22h-21.563z"/><path stroke="gray" fill-opacity="100%" fill="#f0fff0" class="er attributeBoxEven" d="M463.047 322h46.781v22h-46.781z"/><path stroke="gray" fill-opacity="100%" fill="#f0fff0" class="er attributeBoxOdd" d="M330.172 344h53.664v22h-53.664z"/><text transform="translate(335.172 355)" style="font-family:&quot;trebuchet ms&quot;,verdana,arial,sans-serif;font-size:10.2px" text-anchor="left" dominant-baseline="middle" class="er entityLabel">String</text><path stroke="gray" fill-opacity="100%" fill="#f0fff0" class="er attributeBoxOdd" d="M383.836 344h57.648v22h-57.648z"/><text transform="translate(388.836 355)" style="font-family:&quot;trebuchet ms&quot;,verdana,arial,sans-serif;font-size:10.2px" text-anchor="left" dominant-baseline="middle" class="er entityLabel">content</text><path stroke="gray" fill-opacity="100%" fill="#f0fff0" class="er attributeBoxOdd" d="M441.485 344h21.563v22h-21.563z"/><path stroke="gray" fill-opacity="100%" fill="#f0fff0" class="er attributeBoxOdd" d="M463.047 344h46.781v22h-46.781z"/><text transform="translate(468.047 355)" style="font-family:&quot;trebuchet ms&quot;,verdana,arial,sans-serif;font-size:10.2px" text-anchor="left" dominant-baseline="middle" class="er entityLabel">nullable</text><path stroke="gray" fill-opacity="100%" fill="#f0fff0" class="er attributeBoxEven" d="M330.172 366h53.664v22h-53.664z"/><text transform="translate(335.172 377)" style="font-family:&quot;trebuchet ms&quot;,verdana,arial,sans-serif;font-size:10.2px" text-anchor="left" dominant-baseline="middle" class="er entityLabel">DateTime</text><path stroke="gray" fill-opacity="100%" fill="#f0fff0" class="er attributeBoxEven" d="M383.836 366h57.648v22h-57.648z"/><text transform="translate(388.836 377)" style="font-family:&quot;trebuchet ms&quot;,verdana,arial,sans-serif;font-size:10.2px" text-anchor="left" dominant-baseline="middle" class="er entityLabel">startDate</text><path stroke="gray" fill-opacity="100%" fill="#f0fff0" class="er attributeBoxEven" d="M441.485 366h21.563v22h-21.563z"/><path stroke="gray" fill-opacity="100%" fill="#f0fff0" class="er attributeBoxEven" d="M463.047 366h46.781v22h-46.781z"/><path stroke="gray" fill-opacity="100%" fill="#f0fff0" class="er attributeBoxOdd" d="M330.172 388h53.664v22h-53.664z"/><text transform="translate(335.172 399)" style="font-family:&quot;trebuchet ms&quot;,verdana,arial,sans-serif;font-size:10.2px" text-anchor="left" dominant-baseline="middle" class="er entityLabel">DateTime</text><path stroke="gray" fill-opacity="100%" fill="#f0fff0" class="er attributeBoxOdd" d="M383.836 388h57.648v22h-57.648z"/><text transform="translate(388.836 399)" style="font-family:&quot;trebuchet ms&quot;,verdana,arial,sans-serif;font-size:10.2px" text-anchor="left" dominant-baseline="middle" class="er entityLabel">createdAt</text><path stroke="gray" fill-opacity="100%" fill="#f0fff0" class="er attributeBoxOdd" d="M441.485 388h21.563v22h-21.563z"/><path stroke="gray" fill-opacity="100%" fill="#f0fff0" class="er attributeBoxOdd" d="M463.047 388h46.781v22h-46.781z"/><path stroke="gray" fill-opacity="100%" fill="#f0fff0" class="er attributeBoxEven" d="M330.172 410h53.664v22h-53.664z"/><text transform="translate(335.172 421)" style="font-family:&quot;trebuchet ms&quot;,verdana,arial,sans-serif;font-size:10.2px" text-anchor="left" dominant-baseline="middle" class="er entityLabel">DateTime</text><path stroke="gray" fill-opacity="100%" fill="#f0fff0" class="er attributeBoxEven" d="M383.836 410h57.648v22h-57.648z"/><text transform="translate(388.836 421)" style="font-family:&quot;trebuchet ms&quot;,verdana,arial,sans-serif;font-size:10.2px" text-anchor="left" dominant-baseline="middle" class="er entityLabel">updatedAt</text><path stroke="gray" fill-opacity="100%" fill="#f0fff0" class="er attributeBoxEven" d="M441.485 410h21.563v22h-21.563z"/><path stroke="gray" fill-opacity="100%" fill="#f0fff0" class="er attributeBoxEven" d="M463.047 410h46.781v22h-46.781z"/><path stroke="gray" fill-opacity="100%" fill="#f0fff0" class="er entityBox" d="M436.781 532h132.875v112H436.781z"/><text transform="translate(503.219 544)" style="font-family:&quot;trebuchet ms&quot;,verdana,arial,sans-serif;font-size:12px" text-anchor="middle" dominant-baseline="middle" class="er entityLabel">Location</text><path stroke="gray" fill-opacity="100%" fill="#f0fff0" class="er attributeBoxOdd" d="M436.781 556h53.664v22h-53.664z"/><text transform="translate(441.781 567)" style="font-family:&quot;trebuchet ms&quot;,verdana,arial,sans-serif;font-size:10.2px" text-anchor="left" dominant-baseline="middle" class="er entityLabel">String</text><path stroke="gray" fill-opacity="100%" fill="#f0fff0" class="er attributeBoxOdd" d="M490.445 556h57.648v22h-57.648z"/><text transform="translate(495.445 567)" style="font-family:&quot;trebuchet ms&quot;,verdana,arial,sans-serif;font-size:10.2px" text-anchor="left" dominant-baseline="middle" class="er entityLabel">id</text><path stroke="gray" fill-opacity="100%" fill="#f0fff0" class="er attributeBoxOdd" d="M548.094 556h21.563v22h-21.563z"/><text transform="translate(553.094 567)" style="font-family:&quot;trebuchet ms&quot;,verdana,arial,sans-serif;font-size:10.2px" text-anchor="left" dominant-baseline="middle" class="er entityLabel">PK</text><path stroke="gray" fill-opacity="100%" fill="#f0fff0" class="er attributeBoxEven" d="M436.781 578h53.664v22h-53.664z"/><text transform="translate(441.781 589)" style="font-family:&quot;trebuchet ms&quot;,verdana,arial,sans-serif;font-size:10.2px" text-anchor="left" dominant-baseline="middle" class="er entityLabel">String</text><path stroke="gray" fill-opacity="100%" fill="#f0fff0" class="er attributeBoxEven" d="M490.445 578h57.648v22h-57.648z"/><text transform="translate(495.445 589)" style="font-family:&quot;trebuchet ms&quot;,verdana,arial,sans-serif;font-size:10.2px" text-anchor="left" dominant-baseline="middle" class="er entityLabel">title</text><path stroke="gray" fill-opacity="100%" fill="#f0fff0" class="er attributeBoxEven" d="M548.094 578h21.563v22h-21.563z"/><path stroke="gray" fill-opacity="100%" fill="#f0fff0" class="er attributeBoxOdd" d="M436.781 600h53.664v22h-53.664z"/><text transform="translate(441.781 611)" style="font-family:&quot;trebuchet ms&quot;,verdana,arial,sans-serif;font-size:10.2px" text-anchor="left" dominant-baseline="middle" class="er entityLabel">DateTime</text><path stroke="gray" fill-opacity="100%" fill="#f0fff0" class="er attributeBoxOdd" d="M490.445 600h57.648v22h-57.648z"/><text transform="translate(495.445 611)" style="font-family:&quot;trebuchet ms&quot;,verdana,arial,sans-serif;font-size:10.2px" text-anchor="left" dominant-baseline="middle" class="er entityLabel">createdAt</text><path stroke="gray" fill-opacity="100%" fill="#f0fff0" class="er attributeBoxOdd" d="M548.094 600h21.563v22h-21.563z"/><path stroke="gray" fill-opacity="100%" fill="#f0fff0" class="er attributeBoxEven" d="M436.781 622h53.664v22h-53.664z"/><text transform="translate(441.781 633)" style="font-family:&quot;trebuchet ms&quot;,verdana,arial,sans-serif;font-size:10.2px" text-anchor="left" dominant-baseline="middle" class="er entityLabel">DateTime</text><path stroke="gray" fill-opacity="100%" fill="#f0fff0" class="er attributeBoxEven" d="M490.445 622h57.648v22h-57.648z"/><text transform="translate(495.445 633)" style="font-family:&quot;trebuchet ms&quot;,verdana,arial,sans-serif;font-size:10.2px" text-anchor="left" dominant-baseline="middle" class="er entityLabel">updatedAt</text><path stroke="gray" fill-opacity="100%" fill="#f0fff0" class="er attributeBoxEven" d="M548.094 622h21.563v22h-21.563z"/><path fill-opacity="85%" fill="#fff" class="er relationshipLabelBox" d="M76.214 688.615h22.625v14H76.214z"/><text style="font-family:&quot;trebuchet ms&quot;,verdana,arial,sans-serif;font-size:12px" dominant-baseline="middle" text-anchor="middle" y="695.615" x="87.526" class="er relationshipLabel">user</text><path fill-opacity="85%" fill="#fff" class="er relationshipLabelBox" d="M208.688 443.591h22.625v14h-22.625z"/><text style="font-family:&quot;trebuchet ms&quot;,verdana,arial,sans-serif;font-size:12px" dominant-baseline="middle" text-anchor="middle" y="450.591" x="220" class="er relationshipLabel">user</text><path fill-opacity="85%" fill="#fff" class="er relationshipLabelBox" d="M308.687 582.931h22.625v14h-22.625z"/><text style="font-family:&quot;trebuchet ms&quot;,verdana,arial,sans-serif;font-size:12px" dominant-baseline="middle" text-anchor="middle" y="589.931" x="319.999" class="er relationshipLabel">user</text><path fill-opacity="85%" fill="#fff" class="er relationshipLabelBox" d="M399.39 719.842h22.625v14H399.39z"/><text style="font-family:&quot;trebuchet ms&quot;,verdana,arial,sans-serif;font-size:12px" dominant-baseline="middle" text-anchor="middle" y="726.842" x="410.703" class="er relationshipLabel">user</text></svg>